<svg xmlns="http://www.w3.org/2000/svg" viewBox="0 0 384 512" fill="#0B2C4A">
  <path d="M64 0C28.7 0 0 28.7 0 64V448c0 35.3 28.7 64 64 64H320c35.3 0 64-28.7 64-64V160H256c-17.7 0-32-14.3-32-32V0H64zM256 0V128H384L256 0zM64 224H80c35.3 0 64 28.7 64 64v16c0 35.3-28.7 64-64 64H80v32c0 8.8-7.2 16-16 16s-16-7.2-16-16V368 320 240c0-8.8 7.2-16 16-16zm16 112c17.7 0 32-14.3 32-32V288c0-17.7-14.3-32-32-32H80v80zm112-112h32c26.5 0 48 21.5 48 48v64c0 26.5-21.5 48-48 48H192c-8.8 0-16-7.2-16-16V240c0-8.8 7.2-16 16-16zm32 128c8.8 0 16-7.2 16-16V272c0-8.8-7.2-16-16-16H208v96h16zm80-112c0-8.8 7.2-16 16-16h48c8.8 0 16 7.2 16 16s-7.2 16-16 16H320v32h32c8.8 0 16 7.2 16 16s-7.2 16-16 16H320v48c0 8.8-7.2 16-16 16s-16-7.2-16-16V240z"/>
</svg>
